
Complete name.......: Gladiator.Extended.2000.SWESUB.DVDRip.XviD.AC3-Zen_Bud

Format                           : AVI
File size                        : 2.44 GiB
Duration                         : 2h 43mn
Overall bit rate                 : 2 134 Kbps


Video

Format                           : MPEG-4 Visual
Codec ID/Hint                    : XviD
Duration                         : 2h 43mn
Bit rate                         : 1 741 Kbps
Width                            : 718 pixels
Height                           : 436 pixels
Display aspect ratio             : 1.647
Bits/(Pixel*Frame)               : 0.222
Stream size                      : 1.99 GiB (82%)
Writing library                  : XviD 1.2.1 (UTC 2008-12-04)

Audio

Format                           : AC-3
Duration                         : 2h 43mn
Bit rate                         : 384 Kbps
Channel(s)                       : 6 channels
Channel positions                : Front: L C R, Side: L R, LFE
Sampling rate                    : 48.0 KHz
Stream size                      : 450 MiB (18%)


